# xmcd
#
# Track frame offsets:
#  150
#  14370
#  23467
#  34980
#  46182
#  57942
#  69842
#  87072
#  97090
#  108630
#  120032
#  133580
#  146787
#  159567
#  170100
#
# Disc length: 2407 seconds
#
# Revision: 0
# Processed by: cddbd v1.4PL0 Copyright (c) Steve Scherf et al.
# Submitted via: AltoMP3_Maker 3.0
#
DISCID=c109650f
DTITLE=Rangers - Stalo se na zapade
DYEAR=1900
DGENRE=
TTITLE0=Nakladak
TTITLE1=Casey Jones
TTITLE2=Kapitan Stormy
TTITLE3=Naveky chran ten kraj
TTITLE4=Dej boze muj
TTITLE5=Frajer Joe
TTITLE6=Stalo se v meste Langtry
TTITLE7=Tancovacka ve stodole
TTITLE8=Vecny je ricni proud
TTITLE9=Pisen o lasce
TTITLE10=Jablko v dlani
TTITLE11=El Camino Real
TTITLE12=Jdi se toulat krajem
TTITLE13=Uz je cas vratit se domu
TTITLE14=Kozluv dzbanek
EXTD=
EXTT0=
EXTT1=
EXTT2=
EXTT3=
EXTT4=
EXTT5=
EXTT6=
EXTT7=
EXTT8=
EXTT9=
EXTT10=
EXTT11=
EXTT12=
EXTT13=
EXTT14=
PLAYORDER=
